<svg xmlns="http://www.w3.org/2000/svg" viewBox="0 0 130 130"><path d="M78.2,78.2a52.7,52.7,0,0,1,39,17.2,60.4,60.4,0,0,0-4.1-66.9A52.8,52.8,0,0,0,78.2,78.2Z" fill="#0094bf"/><path d="M95.4,117.2a52.7,52.7,0,0,1-17.2-39,52.8,52.8,0,0,0-49.7,34.9,60.4,60.4,0,0,0,66.9,4.1Z" fill="#1b75bb"/><path d="M51.8,51.8a52.7,52.7,0,0,1-39-17.2,60.4,60.4,0,0,0,4.1,66.9A52.8,52.8,0,0,0,51.8,51.8Z" fill="#0094bf"/><path d="M34.6,12.8a52.7,52.7,0,0,1,17.2,39,52.8,52.8,0,0,0,49.7-34.9,60.4,60.4,0,0,0-66.9-4.1Z" fill="#1b75bb"/></svg>