<svg id="Layer_1" data-name="Layer 1" xmlns="http://www.w3.org/2000/svg" viewBox="0 0 727.9 220"><rect x="-1.1" width="730" height="220" fill="none"/><path d="M145.2,123.2a52.5,52.5,0,0,1,39,17.2,60.4,60.4,0,0,0-4.1-66.9A53,53,0,0,0,145.2,123.2Z" fill="#0095c0"/><path d="M162.4,162.2a53.1,53.1,0,0,1-17.2-39,52.9,52.9,0,0,0-49.7,34.9,60.4,60.4,0,0,0,66.9,4.1Z" fill="#1b75bb"/><path d="M118.8,96.8A52.3,52.3,0,0,1,79.9,79.6,60.4,60.4,0,0,0,84,146.5,52.9,52.9,0,0,0,118.8,96.8Z" fill="#0095c0"/><path d="M101.7,57.8a53,53,0,0,1,17.1,39,52.7,52.7,0,0,0,49.7-34.9,60.2,60.2,0,0,0-66.8-4.1Z" fill="#1b75bb"/><path d="M227.7,63.7h15.6c9.3,0,15,5.2,15,13.1h0c0,8.8-7.1,13.4-15.8,13.4h-7.8v12.6h-7Zm15,20.3c5.3,0,8.6-2.9,8.6-7h0c0-4.6-3.4-7-8.6-7h-8V84Z" fill="#231f20"/><path d="M263.2,63.7h29.3v6.1H270.1V80h19.8v6.2H270.1V96.7h22.6v6.2H263.2Z" fill="#231f20"/><path d="M298.7,63.7h17.6c5,0,8.9,1.4,11.4,3.9A11.6,11.6,0,0,1,331,76h0c0,6.5-3.9,10.4-9.4,11.9l10.7,14.9h-8.2l-9.7-13.7h-8.7v13.7h-7Zm17.1,19.4c5,0,8.1-2.6,8.1-6.6h0c0-4.2-3-6.5-8.1-6.5H305.7V83.1Z" fill="#231f20"/><path d="M337.3,63.7h29.4v6.2H344.2V80.6h19.9v6.3H344.2v16h-6.9Z" fill="#231f20"/><path d="M369.9,83.4h0c0-11.1,8.6-20.3,20.7-20.3s20.6,9.1,20.6,20.1v.2c0,11-8.5,20.2-20.7,20.2S369.9,94.4,369.9,83.4Zm34,0h0c0-7.7-5.5-14-13.4-14s-13.3,6.2-13.3,13.8v.2c0,7.6,5.6,13.8,13.4,13.8S403.9,91,403.9,83.4Z" fill="#231f20"/><path d="M417.4,63.7H435c4.9,0,8.8,1.4,11.4,3.9a11.6,11.6,0,0,1,3.3,8.4h0c0,6.5-3.9,10.4-9.4,11.9l10.6,14.9h-8.2L433,89.2h-8.7v13.7h-6.9Zm17.1,19.4c4.9,0,8.1-2.6,8.1-6.6h0c0-4.2-3-6.5-8.2-6.5H424.3V83.1Z" fill="#231f20"/><path d="M455.9,63.7h7.4l12,18.5,12-18.5h7.4v39.2h-6.9V74.7L475.3,93.2h-.2L462.7,74.9v28h-6.8Z" fill="#231f20"/><path d="M516.6,63.4h6.5l17.3,39.5h-7.3l-4-9.5H510.4l-4,9.5h-7.2Zm10,23.9-6.9-15.7L513,87.3Z" fill="#231f20"/><path d="M545,63.7h6.4l21.1,27.1V63.7h6.9v39.2h-5.8L551.8,75v27.9H545Z" fill="#231f20"/><path d="M585.5,83.4h0A19.9,19.9,0,0,1,605.9,63a20.7,20.7,0,0,1,15.5,6.1l-4.5,5.1c-3.2-2.9-6.6-4.9-11.1-4.9-7.5,0-13,6.2-13,13.8v.2c0,7.6,5.5,13.8,13,13.8,4.9,0,8-1.9,11.4-5l4.4,4.5c-4.1,4.2-8.6,6.9-16,6.9A19.8,19.8,0,0,1,585.5,83.4Z" fill="#231f20"/><path d="M626.7,63.7h29.2v6.1H633.6V80h19.8v6.2H633.6V96.7h22.6v6.2H626.7Z" fill="#231f20"/><path d="M240.8,118.5H228.3v-6.4h32v6.4H247.8v32.8h-7Z" fill="#231f20"/><path d="M265.4,112.1H283c5,0,8.9,1.5,11.4,3.9a11.9,11.9,0,0,1,3.3,8.5h0c0,6.4-3.9,10.3-9.4,11.9L299,151.3h-8.3L281,137.6h-8.7v13.7h-6.9Zm17.1,19.4c5,0,8.1-2.5,8.1-6.5h0c0-4.2-3-6.5-8.2-6.5H272.3v13.1Z" fill="#231f20"/><path d="M317.9,111.8h6.5l17.3,39.5h-7.3l-4-9.5H311.7l-4,9.5h-7.1Zm10,23.9L321,120l-6.7,15.7Z" fill="#231f20"/><path d="M342,131.8h0a20,20,0,0,1,20.4-20.3c7.3,0,11.7,2.5,15.4,6.1l-4.4,5.1c-3.2-2.9-6.6-4.8-11.1-4.8-7.5,0-13,6.1-13,13.8h0c0,7.7,5.5,13.9,13,13.9,4.9,0,8-1.9,11.4-5.1l4.4,4.5c-4.1,4.3-8.6,7-16,7A19.8,19.8,0,0,1,342,131.8Z" fill="#231f20"/><path d="M383.2,112.1h6.9v19.7l18.8-19.7h8.6L401,129l17.2,22.3h-8.5l-13.5-17.6-6.1,6.2v11.4h-6.9Z" fill="#231f20"/><path d="M421.9,112.1h29.2v6.2H428.8v10.1h19.8v6.2H428.8v10.5h22.6v6.2H421.9Z" fill="#231f20"/><path d="M457.4,112.1H475c5,0,8.9,1.5,11.4,3.9a11.9,11.9,0,0,1,3.3,8.5h0c0,6.4-3.9,10.3-9.4,11.9L491,151.3h-8.3L473,137.6h-8.7v13.7h-6.9Zm17.1,19.4c5,0,8.1-2.5,8.1-6.5h0c0-4.2-3-6.5-8.2-6.5H464.3v13.1Z" fill="#231f20"/></svg>